<?xml version="1.0" standalone="no"?><!DOCTYPE svg PUBLIC "-//W3C//DTD SVG 1.1//EN" "http://www.w3.org/Graphics/SVG/1.1/DTD/svg11.dtd"><svg t="1729688417823" class="icon" viewBox="0 0 1024 1024" version="1.1" xmlns="http://www.w3.org/2000/svg" p-id="12265" data-darkreader-inline-fill="" xmlns:xlink="http://www.w3.org/1999/xlink" width="200" height="200"><path d="M933.874289 576.526543H167.947182c-13.823551 0-25.087185 11.263634-25.087185 25.087185v397.299087c0 13.823551 11.263634 25.087185 25.087185 25.087185h764.90314c13.823551 0 25.087185-11.263634 25.087185-25.087185v-397.299087c0.511983-13.823551-10.751651-25.087185-24.063218-25.087185z" fill="#3B7FEF" p-id="12266" data-darkreader-inline-fill="" style="--darkreader-inline-fill: #0d47a5;"></path><path d="M413.187211 521.23234l135.163608-238.072263c1.53595-3.0719 2.559917-6.1438 2.047933-9.727684l-8.191734-67.581803c-1.53595-11.263634-11.263634-16.383468-20.991318-12.799584L378.884326 244.249342 316.422356 82.974583c-12.287601-32.254952-36.862802-57.85412-68.60577-71.67767C216.073618-3.038621 180.746766-3.550605 148.491814 8.736996 81.933977 34.848147 48.655059 110.109701 74.254227 176.667538c7.67975 19.455368 29.183052 28.671068 48.126436 21.503301 19.455368-7.67975 28.671068-29.183052 21.503301-48.126435-10.751651-28.159085 3.0719-60.414037 31.230985-71.165688 13.823551-5.119834 28.671068-5.119834 41.982635 1.023967s24.063218 16.895451 29.183052 30.207018l61.949987 159.738809L148.491814 327.190646c-9.727684 3.583884-13.311567 15.359501-7.67975 23.551235l116.220222 169.978476 156.154925 0.511983z" fill="#F05C3F" p-id="12267" data-darkreader-inline-fill="" style="--darkreader-inline-fill: #a3250d;"></path><path d="M934.386272 311.831145L808.950349 234.009675l20.479335-48.63842c7.167767-16.383468 0.511983-35.838835-14.847518-45.054535l-60.92602-35.326852c-16.895451-9.727684-38.910735-4.095867-48.638419 13.311567l-232.952429 403.442888h381.427603v-0.511983l93.180972-161.274759c9.727684-16.895451 4.095867-37.886769-12.287601-48.126436z m-139.259474 153.595009L650.235507 381.460883l63.485937-109.56444 144.891291 83.965271-63.485937 109.56444z" fill="#FFCF48" p-id="12268" data-darkreader-inline-fill="" style="--darkreader-inline-fill: #795900;"></path></svg>